<?xml version="1.0" encoding="UTF-8"?>
<!DOCTYPE svg PUBLIC "-//W3C//DTD SVG 1.1//EN" "http://www.w3.org/Graphics/SVG/1.1/DTD/svg11.dtd">
<svg xmlns="http://www.w3.org/2000/svg" version="1.1" width="512px" height="512px" style="shape-rendering:geometricPrecision; text-rendering:geometricPrecision; image-rendering:optimizeQuality; fill-rule:evenodd; clip-rule:evenodd" xmlns:xlink="http://www.w3.org/1999/xlink">
<g><path style="opacity:1" fill="#0f1210" d="M 244.5,61.5 C 248.16,61.8412 251.493,61.1745 254.5,59.5C 263.991,58.342 273.658,58.1754 283.5,59C 322.066,63.3117 360.733,64.6451 399.5,63C 407.787,66.4581 414.787,71.6247 420.5,78.5C 420.427,80.0269 421.094,81.0269 422.5,81.5C 423.5,81.8333 424.167,82.5 424.5,83.5C 424.427,85.0269 425.094,86.0269 426.5,86.5C 434.947,97.0507 441.614,108.717 446.5,121.5C 446.12,123.698 446.787,125.365 448.5,126.5C 451.616,131.07 453.95,136.07 455.5,141.5C 455.427,143.027 456.094,144.027 457.5,144.5C 460.949,149.735 463.616,155.402 465.5,161.5C 465.427,163.027 466.094,164.027 467.5,164.5C 469.668,167.514 471.668,170.68 473.5,174C 475.833,174.333 478.167,174.667 480.5,175C 482.324,175.66 483.657,176.827 484.5,178.5C 485.167,179.833 486.167,180.833 487.5,181.5C 488.5,181.833 489.167,182.5 489.5,183.5C 489.427,185.027 490.094,186.027 491.5,186.5C 493.898,189.655 495.064,193.321 495,197.5C 495.997,199.323 497.164,200.99 498.5,202.5C 500.205,204.192 502.205,205.525 504.5,206.5C 505.5,206.833 506.167,207.5 506.5,208.5C 507.512,209.872 508.512,211.205 509.5,212.5C 510.833,216.833 510.833,221.167 509.5,225.5C 508.518,229.316 507.851,233.316 507.5,237.5C 506.62,240.262 505.454,242.929 504,245.5C 491.93,257.91 478.43,268.41 463.5,277C 420.68,299.746 376.68,319.746 331.5,337C 321.656,343.755 311.99,350.755 302.5,358C 296.471,362.347 290.138,366.18 283.5,369.5C 281.973,369.427 280.973,370.094 280.5,371.5C 240.476,397.189 198.809,420.356 155.5,441C 127.48,454.118 98.1462,462.785 67.5,467C 54.7725,468.368 42.4391,467.202 30.5,463.5C 28.0948,462.232 25.4282,461.565 22.5,461.5C 21.209,461.737 20.209,461.404 19.5,460.5C 19.0269,459.094 18.0269,458.427 16.5,458.5C 10.0813,453.348 5.91463,446.681 4,438.5C 2.88601,429.314 1.38601,420.314 -0.5,411.5C -0.5,407.5 -0.5,403.5 -0.5,399.5C 0.621188,394.773 1.95452,390.107 3.5,385.5C 4.90632,385.027 5.57298,384.027 5.5,382.5C 8.5,380.167 11.1667,377.5 13.5,374.5C 13.8333,373.5 14.5,372.833 15.5,372.5C 17.7488,371.92 19.4154,370.587 20.5,368.5C 21.5137,367.326 22.847,366.66 24.5,366.5C 26.0269,366.573 27.0269,365.906 27.5,364.5C 27.9731,363.094 28.9731,362.427 30.5,362.5C 32.0269,362.573 33.0269,361.906 33.5,360.5C 35.0269,360.573 36.0269,359.906 36.5,358.5C 38.0269,358.573 39.0269,357.906 39.5,356.5C 41.0269,356.573 42.0269,355.906 42.5,354.5C 47.5156,351.326 52.8489,348.659 58.5,346.5C 60.698,346.88 62.3646,346.213 63.5,344.5C 66.2558,342.796 69.2558,341.463 72.5,340.5C 74.0269,340.573 75.0269,339.906 75.5,338.5C 77.0495,337.559 78.7162,336.893 80.5,336.5C 82.0269,336.573 83.0269,335.906 83.5,334.5C 83.8333,334.5 84.1667,334.5 84.5,334.5C 86.4044,334.262 87.7377,333.262 88.5,331.5C 88.5,330.833 88.8333,330.5 89.5,330.5C 92.1667,329.833 93.8333,328.167 94.5,325.5C 97.4028,322.707 99.5695,319.374 101,315.5C 101.569,311.205 102.736,307.205 104.5,303.5C 106.924,300.992 108.59,297.992 109.5,294.5C 110.906,294.027 111.573,293.027 111.5,291.5C 113.262,290.738 114.262,289.404 114.5,287.5C 115.833,286.833 116.833,285.833 117.5,284.5C 117.5,283.833 117.833,283.5 118.5,283.5C 120.587,282.415 121.92,280.749 122.5,278.5C 123.906,278.027 124.573,277.027 124.5,275.5C 125.227,273.046 126.227,270.713 127.5,268.5C 128.924,266.485 129.59,264.152 129.5,261.5C 129.707,258.759 130.707,256.426 132.5,254.5C 134.167,253.5 135.5,252.167 136.5,250.5C 138.061,248.027 140.061,246.027 142.5,244.5C 144.027,244.573 145.027,243.906 145.5,242.5C 146.793,240.704 148.293,239.037 150,237.5C 152.942,230.621 156.108,223.954 159.5,217.5C 160.906,217.027 161.573,216.027 161.5,214.5C 163.262,213.738 164.262,212.404 164.5,210.5C 165.774,207.24 167.44,204.24 169.5,201.5C 170.906,201.027 171.573,200.027 171.5,198.5C 171.992,196.181 172.992,194.181 174.5,192.5C 175.906,192.027 176.573,191.027 176.5,189.5C 178.694,186.31 179.361,182.976 178.5,179.5C 178.435,176.572 177.768,173.905 176.5,171.5C 175.059,167.605 175.393,163.939 177.5,160.5C 179.031,155.75 179.698,150.75 179.5,145.5C 181.272,137.629 181.938,129.629 181.5,121.5C 181.279,118.933 180.612,116.599 179.5,114.5C 176.733,97.8177 176.9,81.151 180,64.5C 180.844,60.7708 182.344,57.4374 184.5,54.5C 185.906,54.0269 186.573,53.0269 186.5,51.5C 192.191,44.5467 199.524,42.0467 208.5,44C 221.727,47.4478 233.727,53.2811 244.5,61.5 Z"/></g>
<g><path style="opacity:1" fill="#008155" d="M 196.5,49.5 C 213.351,49.0887 228.017,54.5887 240.5,66C 225.656,84.194 217.323,105.027 215.5,128.5C 205.15,130.339 195.317,133.672 186,138.5C 184.152,116.534 183.485,94.5336 184,72.5C 185.074,63.0086 189.241,55.342 196.5,49.5 Z"/></g>
<g><path style="opacity:0.404" fill="#b1b1b1" d="M 186.5,51.5 C 186.573,53.0269 185.906,54.0269 184.5,54.5C 184.427,52.9731 185.094,51.9731 186.5,51.5 Z"/></g>
<g><path style="opacity:0.482" fill="#c9c9c9" d="M 254.5,59.5 C 251.493,61.1745 248.16,61.8412 244.5,61.5C 247.627,60.4192 250.96,59.7526 254.5,59.5 Z"/></g>
<g><path style="opacity:1" fill="#6dbb82" d="M 254.5,64.5 C 261.989,63.3443 269.655,63.1777 277.5,64C 317.051,69.5433 356.717,70.8767 396.5,68C 405.309,70.8274 412.476,75.9941 418,83.5C 427.947,96.3837 436.113,110.384 442.5,125.5C 420.174,130.863 397.507,134.363 374.5,136C 361.11,136.924 347.777,136.591 334.5,135C 324.029,129.534 314.362,122.867 305.5,115C 287.967,98.6332 270.967,81.7999 254.5,64.5 Z"/></g>
<g><path style="opacity:1" fill="#36a73f" d="M 247.5,65.5 C 265.92,83.7508 284.586,101.917 303.5,120C 311.946,127.111 320.946,133.445 330.5,139C 332.788,139.822 335.122,140.489 337.5,141C 370.212,142.317 402.546,139.484 434.5,132.5C 434.833,132.833 435.167,133.167 435.5,133.5C 421.885,162.563 407.885,191.397 393.5,220C 376.046,227.22 360.046,236.72 345.5,248.5C 343.519,234.632 348.853,224.465 361.5,218C 371.794,217.436 380.294,213.27 387,205.5C 400.883,188.568 410.383,169.401 415.5,148C 415.811,144.647 414.311,142.813 411,142.5C 406.158,144.339 401.658,146.839 397.5,150C 369.674,169.51 342.174,189.343 315,209.5C 314.562,214.737 317.062,217.571 322.5,218C 297.747,234.989 289.58,257.822 298,286.5C 278.434,300.703 258.267,314.036 237.5,326.5C 228.4,306.299 228.234,285.966 237,265.5C 248.468,239.199 266.968,219.532 292.5,206.5C 295.846,207.605 299.179,207.438 302.5,206C 317.907,197.596 331.907,187.262 344.5,175C 349.711,169.458 354.544,163.625 359,157.5C 359.323,152.521 356.823,150.021 351.5,150C 341.833,149.333 332.167,149.333 322.5,150C 314.349,151.042 307.516,154.542 302,160.5C 298.44,165.787 295.274,171.287 292.5,177C 247.939,199.559 215.772,233.726 196,279.5C 187.044,303.764 187.377,327.764 197,351.5C 188.912,356.584 180.579,361.25 172,365.5C 153.279,359.302 134.112,356.469 114.5,357C 110.855,358.166 107.188,358.833 103.5,359C 110.484,347.342 118.984,336.842 129,327.5C 130,325.5 131,323.5 132,321.5C 132.543,314.714 132.21,308.048 131,301.5C 149.308,278.88 166.642,255.547 183,231.5C 197.835,208.828 209.169,184.494 217,158.5C 219.541,143.589 221.208,128.589 222,113.5C 226.605,95.283 235.105,79.283 247.5,65.5 Z"/></g>
<g><path style="opacity:0.643" fill="#9f9f9f" d="M 420.5,78.5 C 421.906,78.9731 422.573,79.9731 422.5,81.5C 421.094,81.0269 420.427,80.0269 420.5,78.5 Z"/></g>
<g><path style="opacity:0.475" fill="#9c9c9c" d="M 424.5,83.5 C 425.906,83.9731 426.573,84.9731 426.5,86.5C 425.094,86.0269 424.427,85.0269 424.5,83.5 Z"/></g>
<g><path style="opacity:1" fill="#020602" d="M 257.5,93.5 C 261.41,93.2628 265.077,94.0961 268.5,96C 282.645,107.15 292.478,121.317 298,138.5C 298.991,145.536 297.324,151.869 293,157.5C 277.963,172.936 259.796,181.769 238.5,184C 237.809,182.933 237.309,181.766 237,180.5C 236.333,173.167 236.333,165.833 237,158.5C 240.734,139.16 245.734,120.16 252,101.5C 253.129,98.2064 254.962,95.5397 257.5,93.5 Z"/></g>
<g><path style="opacity:1" fill="#1d361b" d="M 259.5,98.5 C 263.187,99.176 266.52,100.676 269.5,103C 280.154,113.327 287.988,125.493 293,139.5C 293.915,145.091 292.581,150.091 289,154.5C 276.494,166.84 261.661,175.173 244.5,179.5C 243.006,179.291 241.839,178.624 241,177.5C 242.397,150.008 248.564,123.675 259.5,98.5 Z"/></g>
<g><path style="opacity:0.039" fill="#d9d9d9" d="M 179.5,114.5 C 180.612,116.599 181.279,118.933 181.5,121.5C 179.837,119.562 179.171,117.228 179.5,114.5 Z"/></g>
<g><path style="opacity:0.949" fill="#848484" d="M 446.5,121.5 C 447.537,122.93 448.204,124.597 448.5,126.5C 446.787,125.365 446.12,123.698 446.5,121.5 Z"/></g>
<g><path style="opacity:1" fill="#1d361b" d="M 441.5,131.5 C 443.144,131.286 444.644,131.62 446,132.5C 452.586,148.848 461.086,164.014 471.5,178C 464.396,184.438 456.73,190.105 448.5,195C 433.494,203.033 418.161,209.533 402.5,214.5C 415.785,186.932 428.785,159.266 441.5,131.5 Z"/></g>
<g><path style="opacity:1" fill="#009952" d="M 209.5,134.5 C 211.167,134.5 212.833,134.5 214.5,134.5C 214.5,137.5 214.5,140.5 214.5,143.5C 203.288,144.515 192.788,147.848 183,153.5C 182.14,149.048 183.64,145.548 187.5,143C 194.759,139.642 202.092,136.809 209.5,134.5 Z"/></g>
<g><path style="opacity:0.29" fill="#c0c0c0" d="M 455.5,141.5 C 456.906,141.973 457.573,142.973 457.5,144.5C 456.094,144.027 455.427,143.027 455.5,141.5 Z"/></g>
<g><path style="opacity:1" fill="#6ab57e" d="M 207.5,148.5 C 209.5,148.5 211.5,148.5 213.5,148.5C 213.069,155.088 211.569,161.422 209,167.5C 208.439,168.022 207.772,168.355 207,168.5C 199.432,165.299 191.932,161.966 184.5,158.5C 192.068,154.762 199.735,151.428 207.5,148.5 Z"/></g>
<g><path style="opacity:0.627" fill="#c3c3c3" d="M 179.5,145.5 C 179.698,150.75 179.031,155.75 177.5,160.5C 177.608,155.29 178.275,150.29 179.5,145.5 Z"/></g>
<g><path style="opacity:1" fill="#008054" d="M 408.5,148.5 C 409.497,148.47 410.164,148.97 410.5,150C 404.49,171.695 393.823,190.695 378.5,207C 375.661,208.92 372.661,210.587 369.5,212C 354.906,214.244 340.239,214.911 325.5,214C 320.069,213.135 319.403,211.135 323.5,208C 352.013,188.304 380.346,168.47 408.5,148.5 Z"/></g>
<g><path style="opacity:1" fill="#008054" d="M 323.5,154.5 C 333.172,154.334 342.839,154.5 352.5,155C 353.535,156.507 353.368,158.007 352,159.5C 337.252,175.918 320.419,189.752 301.5,201C 299.553,201.991 297.553,202.325 295.5,202C 294.365,197.252 294.198,192.419 295,187.5C 297.441,176.447 302.608,166.947 310.5,159C 314.893,157.329 319.226,155.829 323.5,154.5 Z"/></g>
<g><path style="opacity:1" fill="#009550" d="M 181.5,163.5 C 189.708,166.269 197.708,169.602 205.5,173.5C 206.484,175.598 206.151,177.598 204.5,179.5C 198.079,176.063 191.413,173.23 184.5,171C 181.959,169.152 180.959,166.652 181.5,163.5 Z"/></g>
<g><path style="opacity:0.396" fill="#bdbdbd" d="M 465.5,161.5 C 466.906,161.973 467.573,162.973 467.5,164.5C 466.094,164.027 465.427,163.027 465.5,161.5 Z"/></g>
<g><path style="opacity:0.11" fill="#c0c0c0" d="M 176.5,171.5 C 177.768,173.905 178.435,176.572 178.5,179.5C 176.96,177.162 176.294,174.495 176.5,171.5 Z"/></g>
<g><path style="opacity:1" fill="#69b57e" d="M 182.5,175.5 C 186.211,177.683 190.211,179.183 194.5,180C 197.533,181.178 200.199,182.844 202.5,185C 200.057,190.719 197.224,196.219 194,201.5C 190.649,192.613 186.816,183.946 182.5,175.5 Z"/></g>
<g><path style="opacity:0.008" fill="#c4c4c4" d="M 484.5,178.5 C 486.5,178.5 487.5,179.5 487.5,181.5C 486.167,180.833 485.167,179.833 484.5,178.5 Z"/></g>
<g><path style="opacity:1" fill="#008155" d="M 476.5,179.5 C 480.642,181.12 484.142,183.786 487,187.5C 488.183,191.768 489.183,196.101 490,200.5C 491.695,203.695 494.195,206.028 497.5,207.5C 498.234,214.573 496.734,221.24 493,227.5C 484.708,238.456 474.542,247.29 462.5,254C 437.681,266.907 413.348,280.573 389.5,295C 372.814,301.523 355.48,304.857 337.5,305C 326.209,306.982 316.209,311.649 307.5,319C 296.883,328.111 288.05,338.611 281,350.5C 278.833,352.667 276.667,354.833 274.5,357C 265.724,359.694 257.057,362.694 248.5,366C 221.148,382.645 192.815,397.645 163.5,411C 135.918,423.195 107.252,431.529 77.5,436C 59.0509,437.802 41.0509,435.802 23.5,430C 19.8168,428.159 16.4835,425.826 13.5,423C 33.8287,423.615 53.8287,420.949 73.5,415C 101.613,406.74 128.613,395.74 154.5,382C 212.365,349.914 268.032,314.581 321.5,276C 342.049,255.453 365.383,238.787 391.5,226C 409.95,218.275 428.284,210.275 446.5,202C 457.815,196.175 467.815,188.675 476.5,179.5 Z"/></g>
<g><path style="opacity:1" fill="#6cb981" d="M 289.5,183.5 C 290.239,183.369 290.906,183.536 291.5,184C 290.052,190.041 289.052,196.208 288.5,202.5C 256.568,219.932 236.068,246.266 227,281.5C 225.546,289.786 225.213,298.119 226,306.5C 227.622,314.153 229.788,321.653 232.5,329C 222.62,335.867 212.453,342.367 202,348.5C 192.092,324.911 192.092,301.245 202,277.5C 216.492,245.003 238.326,218.503 267.5,198C 275.009,193.304 282.343,188.47 289.5,183.5 Z"/></g>
<g><path style="opacity:0.502" fill="#b9b9b9" d="M 489.5,183.5 C 490.906,183.973 491.573,184.973 491.5,186.5C 490.094,186.027 489.427,185.027 489.5,183.5 Z"/></g>
<g><path style="opacity:1" fill="#00944f" d="M 182.5,189.5 C 185.494,195.378 188.494,201.378 191.5,207.5C 190.469,208.7 189.635,210.034 189,211.5C 184.268,206.662 181.434,200.828 180.5,194C 181.044,192.415 181.711,190.915 182.5,189.5 Z"/></g>
<g><path style="opacity:0.439" fill="#a8a8a8" d="M 176.5,189.5 C 176.573,191.027 175.906,192.027 174.5,192.5C 174.427,190.973 175.094,189.973 176.5,189.5 Z"/></g>
<g><path style="opacity:0.459" fill="#bababa" d="M 171.5,198.5 C 171.573,200.027 170.906,201.027 169.5,201.5C 169.427,199.973 170.094,198.973 171.5,198.5 Z"/></g>
<g><path style="opacity:1" fill="#68b27c" d="M 175.5,199.5 C 177.754,205.812 181.421,211.312 186.5,216C 186.002,217.158 185.169,217.991 184,218.5C 179.286,216.65 174.453,215.316 169.5,214.5C 169.563,208.709 171.563,203.709 175.5,199.5 Z"/></g>
<g><path style="opacity:0.125" fill="#d3d3d3" d="M 498.5,202.5 C 501.337,202.684 503.337,204.018 504.5,206.5C 502.205,205.525 500.205,204.192 498.5,202.5 Z"/></g>
<g><path style="opacity:1" fill="#1d361b" d="M 503.5,209.5 C 505.959,210.874 506.959,213.04 506.5,216C 506.303,223.802 504.803,231.302 502,238.5C 493.709,249.128 483.876,257.961 472.5,265C 427.483,291.84 380.149,313.84 330.5,331C 269.108,375.548 203.441,413.214 133.5,444C 113.16,452.113 92.1599,457.78 70.5,461C 53.2845,463.169 36.6178,461.169 20.5,455C 11.9171,446.252 7.41709,435.752 7,423.5C 13.4583,430.988 21.625,435.821 31.5,438C 51.7597,442.247 72.0931,442.58 92.5,439C 146.76,426.254 197.093,404.587 243.5,374C 253.094,369.356 263.094,365.69 273.5,363C 275.996,361.92 278.33,360.586 280.5,359C 286.122,351.589 291.622,344.089 297,336.5C 306.722,324.435 318.889,315.935 333.5,311C 345.174,309.809 356.841,308.475 368.5,307C 375.286,305.405 381.953,303.405 388.5,301C 414.578,285.932 440.912,271.266 467.5,257C 477.894,250.607 487.06,242.773 495,233.5C 500.318,226.38 503.151,218.38 503.5,209.5 Z"/></g>
<g><path style="opacity:0.231" fill="#dddddd" d="M 506.5,208.5 C 508.912,208.694 509.912,210.027 509.5,212.5C 508.512,211.205 507.512,209.872 506.5,208.5 Z"/></g>
<g><path style="opacity:0.549" fill="#c7c7c7" d="M 164.5,210.5 C 164.262,212.404 163.262,213.738 161.5,214.5C 161.738,212.596 162.738,211.262 164.5,210.5 Z"/></g>
<g><path style="opacity:0.349" fill="#c4c4c4" d="M 161.5,214.5 C 161.573,216.027 160.906,217.027 159.5,217.5C 159.427,215.973 160.094,214.973 161.5,214.5 Z"/></g>
<g><path style="opacity:1" fill="#6cb981" d="M 329.5,219.5 C 336.2,219.17 342.866,219.503 349.5,220.5C 340.254,229.172 337.254,239.672 340.5,252C 328.935,263.113 316.602,273.28 303.5,282.5C 298.345,271.305 298.178,259.971 303,248.5C 308.58,235.758 317.413,226.092 329.5,219.5 Z"/></g>
<g><path style="opacity:1" fill="#00944f" d="M 162.5,218.5 C 164.354,226.404 166.354,234.404 168.5,242.5C 167.909,244.266 167.076,245.933 166,247.5C 160.746,238.207 159.579,228.541 162.5,218.5 Z"/></g>
<g><path style="opacity:1" fill="#00934f" d="M 169.5,219.5 C 173.615,220.095 177.615,221.095 181.5,222.5C 181.67,223.822 181.337,224.989 180.5,226C 176.852,226.062 173.185,225.895 169.5,225.5C 169.5,223.5 169.5,221.5 169.5,219.5 Z"/></g>
<g><path style="opacity:1" fill="#309638" d="M 170.5,230.5 C 172.604,230.201 174.604,230.534 176.5,231.5C 173.144,239.795 171.144,239.462 170.5,230.5 Z"/></g>
<g><path style="opacity:0.068" fill="#d8d8d8" d="M 509.5,225.5 C 509.917,229.817 509.25,233.817 507.5,237.5C 507.851,233.316 508.518,229.316 509.5,225.5 Z"/></g>
<g><path style="opacity:1" fill="#6ab57e" d="M 156.5,237.5 C 158.377,242.274 160.377,247.107 162.5,252C 158.794,257.238 154.961,262.405 151,267.5C 149.883,266.051 149.216,264.384 149,262.5C 148.333,257.167 148.333,251.833 149,246.5C 152.088,243.919 154.588,240.919 156.5,237.5 Z"/></g>
<g><path style="opacity:0.78" fill="#9a9a9a" d="M 145.5,242.5 C 145.027,243.906 144.027,244.573 142.5,244.5C 142.973,243.094 143.973,242.427 145.5,242.5 Z"/></g>
<g><path style="opacity:0.627" fill="#c7c7c7" d="M 136.5,250.5 C 135.5,252.167 134.167,253.5 132.5,254.5C 132.833,252.167 134.167,250.833 136.5,250.5 Z"/></g>
<g><path style="opacity:1" fill="#008e4c" d="M 142.5,250.5 C 143.218,257.965 144.551,265.465 146.5,273C 145.349,274.823 144.182,276.656 143,278.5C 141.883,277.051 141.216,275.384 141,273.5C 139.935,267.189 139.602,260.856 140,254.5C 140.662,253.016 141.496,251.683 142.5,250.5 Z"/></g>
<g><path style="opacity:1" fill="#1d361b" d="M 133.5,258.5 C 134.551,266.661 136.218,274.827 138.5,283C 134.372,289.415 129.872,295.582 125,301.5C 126.712,307.671 127.379,314.004 127,320.5C 118.761,329.982 110.761,339.649 103,349.5C 100.17,353.463 98.8369,357.796 99,362.5C 100.473,364.007 102.307,364.674 104.5,364.5C 112.695,362.16 121.029,361.326 129.5,362C 142.022,363.304 154.355,365.638 166.5,369C 148.755,379.206 130.422,388.372 111.5,396.5C 110.205,395.902 108.872,395.402 107.5,395C 103,394.833 98.5,394.667 94,394.5C 78.199,396.065 62.3657,396.565 46.5,396C 34.0763,394.47 22.4096,390.637 11.5,384.5C 10.4173,383.635 10.2506,382.635 11,381.5C 18.6605,374.172 27.1605,368.006 36.5,363C 56.6458,353.096 76.3125,342.429 95.5,331C 98.6828,327.985 101.683,324.818 104.5,321.5C 106.316,323.817 108.316,325.984 110.5,328C 116.834,329.329 119.668,326.829 119,320.5C 112.962,312.083 111.962,303.083 116,293.5C 121.445,287.386 126.112,280.72 130,273.5C 130.841,268.367 132.008,263.367 133.5,258.5 Z"/></g>
<g><path style="opacity:0.91" fill="#9e9e9e" d="M 129.5,261.5 C 129.59,264.152 128.924,266.485 127.5,268.5C 127.41,265.848 128.076,263.515 129.5,261.5 Z"/></g>
<g><path style="opacity:0.333" fill="#d0d0d0" d="M 124.5,275.5 C 124.573,277.027 123.906,278.027 122.5,278.5C 122.427,276.973 123.094,275.973 124.5,275.5 Z"/></g>
<g><path style="opacity:0.373" fill="#c7c7c7" d="M 122.5,278.5 C 121.92,280.749 120.587,282.415 118.5,283.5C 119.08,281.251 120.413,279.585 122.5,278.5 Z"/></g>
<g><path style="opacity:0.369" fill="#e4e4e4" d="M 117.5,284.5 C 116.833,285.833 115.833,286.833 114.5,287.5C 114.5,285.5 115.5,284.5 117.5,284.5 Z"/></g>
<g><path style="opacity:0.914" fill="#8e8e8e" d="M 114.5,287.5 C 114.262,289.404 113.262,290.738 111.5,291.5C 111.738,289.596 112.738,288.262 114.5,287.5 Z"/></g>
<g><path style="opacity:0.459" fill="#c1c1c1" d="M 111.5,291.5 C 111.573,293.027 110.906,294.027 109.5,294.5C 109.427,292.973 110.094,291.973 111.5,291.5 Z"/></g>
<g><path style="opacity:0.208" fill="#d4d4d4" d="M 109.5,294.5 C 108.59,297.992 106.924,300.992 104.5,303.5C 105.41,300.008 107.076,297.008 109.5,294.5 Z"/></g>
<g><path style="opacity:1" fill="#008b4b" d="M 107.5,305.5 C 108.436,311.618 110.769,317.284 114.5,322.5C 114.167,322.833 113.833,323.167 113.5,323.5C 110.056,320.542 107.556,316.876 106,312.5C 105.865,310.078 106.365,307.745 107.5,305.5 Z"/></g>
<g><path style="opacity:0.816" fill="#868686" d="M 94.5,325.5 C 93.8333,328.167 92.1667,329.833 89.5,330.5C 90.8333,328.5 92.5,326.833 94.5,325.5 Z"/></g>
<g><path style="opacity:0.8" fill="#888888" d="M 88.5,331.5 C 87.7377,333.262 86.4044,334.262 84.5,334.5C 85.2623,332.738 86.5956,331.738 88.5,331.5 Z"/></g>
<g><path style="opacity:0.937" fill="#848484" d="M 83.5,334.5 C 83.0269,335.906 82.0269,336.573 80.5,336.5C 80.9731,335.094 81.9731,334.427 83.5,334.5 Z"/></g>
<g><path style="opacity:0.914" fill="#909090" d="M 75.5,338.5 C 75.0269,339.906 74.0269,340.573 72.5,340.5C 72.9731,339.094 73.9731,338.427 75.5,338.5 Z"/></g>
<g><path style="opacity:0.976" fill="#808080" d="M 63.5,344.5 C 62.3646,346.213 60.698,346.88 58.5,346.5C 59.9303,345.463 61.597,344.796 63.5,344.5 Z"/></g>
<g><path style="opacity:0.875" fill="#949494" d="M 42.5,354.5 C 42.0269,355.906 41.0269,356.573 39.5,356.5C 39.9731,355.094 40.9731,354.427 42.5,354.5 Z"/></g>
<g><path style="opacity:0.851" fill="#969696" d="M 39.5,356.5 C 39.0269,357.906 38.0269,358.573 36.5,358.5C 36.9731,357.094 37.9731,356.427 39.5,356.5 Z"/></g>
<g><path style="opacity:0.863" fill="#8f8f8f" d="M 36.5,358.5 C 36.0269,359.906 35.0269,360.573 33.5,360.5C 33.9731,359.094 34.9731,358.427 36.5,358.5 Z"/></g>
<g><path style="opacity:0.875" fill="#909090" d="M 33.5,360.5 C 33.0269,361.906 32.0269,362.573 30.5,362.5C 30.9731,361.094 31.9731,360.427 33.5,360.5 Z"/></g>
<g><path style="opacity:0.812" fill="#a2a2a2" d="M 27.5,364.5 C 27.0269,365.906 26.0269,366.573 24.5,366.5C 24.9731,365.094 25.9731,364.427 27.5,364.5 Z"/></g>
<g><path style="opacity:0.004" fill="#e0e0e0" d="M 283.5,369.5 C 283.027,370.906 282.027,371.573 280.5,371.5C 280.973,370.094 281.973,369.427 283.5,369.5 Z"/></g>
<g><path style="opacity:0.984" fill="#727272" d="M 20.5,368.5 C 19.4154,370.587 17.7488,371.92 15.5,372.5C 16.5846,370.413 18.2512,369.08 20.5,368.5 Z"/></g>
<g><path style="opacity:0.851" fill="#8f8f8f" d="M 13.5,374.5 C 11.1667,377.5 8.5,380.167 5.5,382.5C 7.16667,378.833 9.83333,376.167 13.5,374.5 Z"/></g>
<g><path style="opacity:0.353" fill="#c9c9c9" d="M 5.5,382.5 C 5.57298,384.027 4.90632,385.027 3.5,385.5C 3.42702,383.973 4.09368,382.973 5.5,382.5 Z"/></g>
<g><path style="opacity:1" fill="#35a53e" d="M 6.5,388.5 C 12.1039,390.965 17.7706,393.465 23.5,396C 29.7086,398.136 36.042,399.802 42.5,401C 62.5145,401.035 82.5145,400.701 102.5,400C 80.7975,408.342 58.4642,414.342 35.5,418C 29.1667,418.667 22.8333,418.667 16.5,418C 10.8406,417.004 7.00731,413.838 5,408.5C 4.5108,401.765 5.0108,395.099 6.5,388.5 Z"/></g>
<g><path style="opacity:0.31" fill="#b0b0b0" d="M 16.5,458.5 C 18.0269,458.427 19.0269,459.094 19.5,460.5C 17.9731,460.573 16.9731,459.906 16.5,458.5 Z"/></g>
<g><path style="opacity:0.82" fill="#808080" d="M 22.5,461.5 C 25.4282,461.565 28.0948,462.232 30.5,463.5C 27.5049,463.706 24.8383,463.04 22.5,461.5 Z"/></g>
</svg>
